<!DOCTYPE svg PUBLIC "-//W3C//DTD SVG 1.1//EN" "http://www.w3.org/Graphics/SVG/1.1/DTD/svg11.dtd">
<!-- Uploaded to: SVG Repo, www.svgrepo.com, Transformed by: SVG Repo Mixer Tools -->
<svg width="800px" height="800px" viewBox="0 0 48 48" xmlns="http://www.w3.org/2000/svg" fill="#000000">
<g id="SVGRepo_bgCarrier" stroke-width="0"/>
<g id="SVGRepo_tracerCarrier" stroke-linecap="round" stroke-linejoin="round"/>
<g id="SVGRepo_iconCarrier">
<title>70 Basic icons by Xicons.co</title>
<circle cx="20" cy="40" r="4" fill="#525057"/>
<path d="M12.3,17.3A2,2,0,0,1,10.41,16L7.59,8H3A2,2,0,0,1,3,4H9a2,2,0,0,1,1.88,1.33l3.3,9.3A2,2,0,0,1,12.3,17.3Z" fill="#c8c8c8"/>
<path d="M41.42,33H16.51a2,2,0,0,1-1.92-1.45L9,12H45.47a2,2,0,0,1,1.95,2.46l-4,17A2,2,0,0,1,41.42,33Z" fill="#4dbe86"/>
<circle cx="38" cy="40" r="4" fill="#525057"/>
</g>
</svg>