<svg version="1.2" xmlns="http://www.w3.org/2000/svg" viewBox="0 0 563 563" width="563" height="563">
	<title>391997-PCIBAY-654-ai</title>
	<defs>
		<linearGradient id="g1" x2="1" gradientUnits="userSpaceOnUse" gradientTransform="matrix(555.004,0,0,505.48,5.728,27.996)">
			<stop offset="0" stop-color="#00fee2"/>
			<stop offset="1" stop-color="#ab5eec"/>
		</linearGradient>
	</defs>
	<style>
		.s0 { fill: url(#g1) } 
		.s1 { fill: #023859 } 
		.s2 { fill: #00fee2 } 
	</style>
	<g id="BACKGROUND">
	</g>
	<g id="OBJECTS">
		<g id="&lt;Group&gt;" style="opacity: .2;mix-blend-mode: multiply">
		</g>
		<g id="&lt;Group&gt;">
			<g id="&lt;Group&gt;">
				<path id="&lt;Path&gt;" class="s0" d="m544.8 125.7l-161.9-93.4c-9.8-5.7-21.9-5.7-31.8 0l-161.9 93.4q0 0 0 0l-120.7 69.7c-8.8 5.1-12 16.1-7.1 24.5 4.8 8.4 15.9 11.1 24.7 6l87.2-50.4v41l-158.1 91.3c-8.9 5.1-12.1 16-7.2 24.4 4.9 8.5 15.9 11.2 24.8 6.1l140.5-81.2v40.6l-77.6 44.9c-8.8 5-12 16-7.1 24.4 4.8 8.4 15.9 11.1 24.7 6l60-34.6v1.8c0 5.7 1.6 11.2 4.3 15.9 2.7 4.8 6.7 8.8 11.6 11.6l1.9 1.1-149.2 86.1c-8.8 5.1-12 16.1-7.2 24.5 4.9 8.4 16 11.1 24.8 6l166.8-96.3 35.2 20.3-73.8 42.6c-8.8 5.1-12 16-7.1 24.5 4.8 8.4 15.9 11.1 24.7 6l91.3-52.7 35.2 20.3-87.2 50.3c-8.8 5.1-12 16.1-7.1 24.5 4.8 8.4 15.9 11.1 24.7 6l168-96.9q0 0 0-0.1l114.6-66.2c9.9-5.6 15.9-16.1 15.9-27.5v-186.9c0-11.4-6-21.9-15.9-27.6z"/>
			</g>
			<g id="&lt;Group&gt;">
				<g id="&lt;Group&gt;">
					<path id="&lt;Compound Path&gt;" fill-rule="evenodd" class="s1" d="m367 399.5c-0.9 0-1.9-0.2-2.8-0.7l-127.4-73.6c-1.8-1-2.8-2.9-2.8-4.9v-147.2c0-2 1-3.8 2.8-4.8 1.7-1 3.8-1 5.6 0l127.4 73.6c1.8 1 2.8 2.8 2.8 4.8v147.2c0 2-1 3.9-2.8 4.9-0.8 0.5-1.8 0.7-2.8 0.7zm-121.8-82.4l116.2 67.1v-134.2l-116.2-67.1z"/>
				</g>
				<g id="&lt;Group&gt;">
					<path id="&lt;Compound Path&gt;" fill-rule="evenodd" class="s1" d="m367 399.5c-0.9 0-1.9-0.2-2.8-0.7l-127.4-73.6c-1.8-1-2.8-2.9-2.8-4.9v-147.2c0-2 1-3.8 2.8-4.8l127.4-73.6c1.8-1 3.9-1 5.6 0l127.5 73.6c1.7 1 2.8 2.8 2.8 4.8v147.2c0 2-1.1 3.9-2.8 4.9l-127.5 73.6c-0.8 0.5-1.8 0.7-2.8 0.7zm-121.8-82.4l121.8 70.3 121.9-70.3v-140.7l-121.9-70.4-121.8 70.4z"/>
				</g>
				<g id="&lt;Group&gt;">
					<path id="&lt;Compound Path&gt;" fill-rule="evenodd" class="s1" d="m367 399.5c-0.9 0-1.9-0.2-2.8-0.7-1.7-1-2.8-2.9-2.8-4.9v-147.2c0-2 1.1-3.8 2.8-4.8l127.5-73.6c1.7-1 3.9-1 5.6 0 1.7 1 2.8 2.8 2.8 4.8v147.2c0 2-1.1 3.9-2.8 4.9l-127.5 73.6c-0.8 0.5-1.8 0.7-2.8 0.7zm5.6-149.5v134.2l116.3-67.1v-134.2z"/>
				</g>
				<g id="&lt;Group&gt;">
					<path id="&lt;Compound Path&gt;" fill-rule="evenodd" class="s1" d="m367 252.3c-0.9 0-1.9-0.2-2.8-0.7l-127.4-73.6c-1.8-1-2.8-2.9-2.8-4.9 0-2 1-3.8 2.8-4.8l127.4-73.6c1.8-1 3.9-1 5.6 0l127.5 73.6c1.7 1 2.8 2.8 2.8 4.8 0 2-1.1 3.9-2.8 4.9l-127.5 73.6c-0.8 0.5-1.8 0.7-2.8 0.7zm-116.2-79.2l116.2 67.2 116.3-67.2-116.3-67.1z"/>
				</g>
				<g id="&lt;Group&gt;">
					<path id="&lt;Compound Path&gt;" fill-rule="evenodd" class="s1" d="m367 252.3c-0.9 0-1.9-0.2-2.8-0.7l-65-37.6c-1.8-1-2.8-2.8-2.8-4.8 0-2 1.1-3.9 2.8-4.9l65-37.5c1.8-1 3.9-1 5.6 0l65.1 37.5c1.7 1 2.8 2.9 2.8 4.9 0 2-1.1 3.8-2.8 4.8l-65.1 37.6c-0.8 0.5-1.8 0.7-2.8 0.7zm-53.8-43.1l53.8 31.1 53.9-31.1-53.9-31.1z"/>
				</g>
				<g id="&lt;Group&gt;">
					<path id="&lt;Path&gt;" class="s1" d="m239.6 173.1l-25.1 70.6 127.4 73.6 25.1-70.6z"/>
					<path id="&lt;Compound Path&gt;" fill-rule="evenodd" class="s1" d="m341.9 322.9c-1 0-1.9-0.3-2.8-0.8l-127.4-73.6c-2.4-1.3-3.4-4.1-2.5-6.7l25.1-70.5c0.6-1.6 1.8-2.8 3.3-3.4 1.6-0.6 3.3-0.4 4.8 0.4l127.4 73.6c2.4 1.3 3.4 4.2 2.5 6.7l-25.1 70.6c-0.6 1.5-1.8 2.8-3.3 3.3q-1 0.4-2 0.4zm-120.6-81.7l117.6 67.9 21.3-59.8-117.6-67.9z"/>
				</g>
				<g id="&lt;Group&gt;">
					<path id="&lt;Path&gt;" class="s1" d="m494.5 173.1l25.1 70.6-127.4 73.6-25.2-70.6z"/>
					<path id="&lt;Compound Path&gt;" fill-rule="evenodd" class="s1" d="m392.2 322.9q-1 0-2-0.4c-1.5-0.5-2.8-1.8-3.3-3.3l-25.1-70.6c-1-2.5 0.1-5.4 2.4-6.7l127.5-73.6c1.4-0.8 3.2-1 4.7-0.4 1.6 0.6 2.8 1.8 3.4 3.4l25.1 70.5c0.9 2.6-0.1 5.4-2.5 6.7l-127.4 73.6c-0.9 0.5-1.9 0.8-2.8 0.8zm-18.3-73.6l21.3 59.8 117.6-67.9-21.3-59.8z"/>
				</g>
			</g>
			<path id="&lt;Path&gt;" class="s2" d="m26.5 259.4c8.4-4.8 11.2-15.5 6.4-23.8-4.8-8.4-15.5-11.3-23.9-6.4-8.3 4.8-11.2 15.5-6.4 23.8 4.9 8.4 15.6 11.3 23.9 6.4z"/>
			<path id="&lt;Path&gt;" class="s2" d="m75.1 395c8.3-4.8 11.2-15.5 6.4-23.9-4.9-8.3-15.6-11.2-23.9-6.4-8.4 4.8-11.2 15.5-6.4 23.9 4.8 8.4 15.5 11.2 23.9 6.4z"/>
			<path id="&lt;Path&gt;" class="s2" d="m143.6 477.6c-8.3 4.8-11.2 15.5-6.4 23.9 4.9 8.3 15.5 11.2 23.9 6.4 8.4-4.9 11.2-15.5 6.4-23.9-4.8-8.4-15.5-11.2-23.9-6.4z"/>
		</g>
	</g>
	<g id="DESIGNED BY FREEPIK">
		<g id="&lt;Group&gt;">
			<g id="&lt;Group&gt;">
			</g>
		</g>
	</g>
</svg>